<?xml version="1.0" encoding="iso-8859-1"?>
<!-- Generator: Adobe Illustrator 19.0.0, SVG Export Plug-In . SVG Version: 6.00 Build 0)  -->
<svg version="1.1" id="Layer_1" xmlns="http://www.w3.org/2000/svg" xmlns:xlink="http://www.w3.org/1999/xlink" x="0px" y="0px"
	 viewBox="0 0 503.04 503.04" style="enable-background:new 0 0 503.04 503.04;" xml:space="preserve">
<g transform="translate(3 3)">
	<path style="fill:#7EE1E6;" d="M129.053,256.84c61.44,0,110.933,49.493,110.933,110.933s-49.493,110.933-110.933,110.933
		c-61.44,0-110.933-49.493-110.933-110.933S67.613,256.84,129.053,256.84"/>
	<path style="fill:#FFE079;" d="M367.987,239.774c-61.44,0-110.933-49.493-110.933-110.933S306.547,17.907,367.987,17.907
		S478.92,67.4,478.92,128.84S429.427,239.774,367.987,239.774"/>
</g>
<path style="fill:#51565F;" d="M302.72,503.04c-0.853,0-2.56,0-3.413-0.853l-51.2-51.2l0,0l0,0l0,0l0,0l0,0
	c0,0-0.853-0.853-0.853-1.707c0-0.853,0-0.853,0-1.707l0,0l0,0l0,0l0,0l0,0l0,0l0,0l0,0l0,0c0-0.853,0-0.853,0-1.707
	c0-0.853,0.853-0.853,0.853-1.707l0,0l0,0l0,0l0,0l0,0l51.2-51.2c1.707-1.707,4.267-1.707,5.973,0c1.707,1.707,1.707,4.267,0,5.973
	l-43.52,43.52h40.96c77.653,0,140.8-63.147,140.8-140.8v-42.667c0-2.56,1.707-4.267,4.267-4.267s4.267,1.707,4.267,4.267v42.667
	c0,81.92-67.413,149.333-149.333,149.333h-40.96l43.52,43.52c1.707,1.707,1.707,4.267,0,5.973
	C305.28,503.04,303.574,503.04,302.72,503.04z M132.053,485.974c-63.147,0-115.2-52.053-115.2-115.2s52.053-115.2,115.2-115.2
	s115.2,52.053,115.2,115.2S195.2,485.974,132.053,485.974z M25.387,370.774c0,58.88,47.787,106.667,106.667,106.667
	S238.72,429.654,238.72,370.774s-47.787-106.667-106.667-106.667S25.387,311.894,25.387,370.774z M140.587,426.24
	c-23.04,0-42.667-14.507-51.2-34.133h-8.533c-2.56,0-4.267-1.707-4.267-4.267c0-2.56,1.707-4.267,4.267-4.267h5.973
	c-0.853-4.267-1.707-8.533-1.707-12.8s0.853-8.533,1.707-12.8h-5.973c-2.56,0-4.267-1.707-4.267-4.267
	c0-2.56,1.707-4.267,4.267-4.267h8.533c8.533-19.627,28.16-34.133,51.2-34.133c5.973,0,12.8,0.853,18.773,3.413
	c2.56,0.853,3.413,3.413,2.56,5.12c-0.853,2.56-3.413,3.413-5.12,2.56c-5.12-1.707-10.24-2.56-15.36-2.56
	c-17.92,0-34.133,10.24-41.813,25.6h41.813c2.56,0,4.267,1.707,4.267,4.267c0,2.56-1.707,4.267-4.267,4.267H96.214
	c-0.853,4.267-1.707,8.533-1.707,12.8s0.853,8.533,1.707,12.8h36.693c2.56,0,4.267,1.707,4.267,4.267
	c0,2.56-1.707,4.267-4.267,4.267h-33.28c7.68,15.36,23.893,25.6,41.813,25.6c5.12,0,10.24-0.853,15.36-2.56
	c2.56-0.853,4.267,0,5.12,2.56c0.853,2.56,0,4.267-2.56,5.12C152.533,425.387,146.56,426.24,140.587,426.24z M370.987,247.04
	c-63.147,0-115.2-52.053-115.2-115.2s52.053-115.2,115.2-115.2s115.2,52.053,115.2,115.2S434.133,247.04,370.987,247.04z
	 M264.32,131.84c0,58.88,47.787,106.667,106.667,106.667S477.653,190.72,477.653,131.84S429.867,25.174,370.987,25.174
	S264.32,72.96,264.32,131.84z M55.253,247.04c-2.56,0-4.267-1.707-4.267-4.267v-42.667c0-81.92,67.413-149.333,149.333-149.333
	h40.96l-43.52-43.52c-1.707-1.707-1.707-4.267,0-5.973s4.267-1.707,5.973,0l51.2,51.2l0,0l0,0l0,0l0,0c0,0,0.853,0.853,0.853,1.707
	s0,0.853,0,1.707l0,0l0,0l0,0l0,0l0,0l0,0l0,0l0,0l0,0c0,0.853,0,0.853,0,1.707c0,0.853-0.853,0.853-0.853,1.707l0,0l0,0l0,0l0,0
	l-51.2,51.2c-1.707,1.707-4.267,1.707-5.973,0c-1.707-1.707-1.707-4.267,0-5.973l43.52-43.52h-40.96
	c-77.653,0-140.8,63.147-140.8,140.8v42.667C59.52,245.333,57.813,247.04,55.253,247.04z M370.987,195.84
	c-2.56,0-4.267-1.707-4.267-4.267v-4.267c-14.507-1.707-25.6-14.507-25.6-29.867c0-2.56,1.707-4.267,4.267-4.267
	s4.267,1.707,4.267,4.267c0,11.947,9.387,21.333,21.333,21.333c11.947,0,21.333-9.387,21.333-21.333
	c0-11.947-9.387-21.333-21.333-21.333c-16.213,0-29.867-13.653-29.867-29.867c0-15.36,11.093-27.307,25.6-29.867v-4.267
	c0-2.56,1.707-4.267,4.267-4.267s4.267,1.707,4.267,4.267v4.267c14.507,1.707,25.6,14.507,25.6,29.867
	c0,2.56-1.707,4.267-4.267,4.267s-4.267-1.707-4.267-4.267c0-11.947-9.387-21.333-21.333-21.333
	c-11.947,0-21.333,9.387-21.333,21.333s9.387,21.333,21.333,21.333c16.213,0,29.867,13.653,29.867,29.867
	c0,15.36-11.093,27.307-25.6,29.867v4.267C375.253,194.133,373.547,195.84,370.987,195.84z"/>
<g>
</g>
<g>
</g>
<g>
</g>
<g>
</g>
<g>
</g>
<g>
</g>
<g>
</g>
<g>
</g>
<g>
</g>
<g>
</g>
<g>
</g>
<g>
</g>
<g>
</g>
<g>
</g>
<g>
</g>
</svg>
