<?xml version="1.0" encoding="iso-8859-1"?>
<!-- Generator: Adobe Illustrator 19.0.0, SVG Export Plug-In . SVG Version: 6.00 Build 0)  -->
<svg version="1.1" id="Layer_1" xmlns="http://www.w3.org/2000/svg" xmlns:xlink="http://www.w3.org/1999/xlink" x="0px" y="0px"
	 viewBox="0 0 512 512" style="enable-background:new 0 0 512 512;" xml:space="preserve">
<path style="fill:#DBDBDB;" d="M414.992,512H97.008c-12.792-0.056-23.144-10.408-23.2-23.2V23.2
	C73.864,10.408,84.216,0.056,97.008,0h317.984c12.792,0.056,23.144,10.408,23.2,23.2v465.6
	C438.136,501.592,427.784,511.944,414.992,512z"/>
<path style="fill:#999999;" d="M256,497.416c-8.96,0-16.224-7.264-16.224-16.224s7.264-16.224,16.224-16.224
	s16.224,7.264,16.224,16.224l0,0C272.216,490.152,264.96,497.408,256,497.416z M256,470.76c-5.744,0-10.4,4.656-10.4,10.4
	s4.656,10.4,10.4,10.4s10.4-4.656,10.4-10.4l0,0C266.4,475.416,261.744,470.76,256,470.76z"/>
<rect x="94.104" y="31.936" width="323.8" height="419.04"/>
<g>
	<circle style="fill:#999999;" cx="256" cy="16" r="4.44"/>
	<rect x="225.36" y="124.224" style="fill:#999999;" width="161.8" height="8"/>
	<rect x="225.36" y="154.376" style="fill:#999999;" width="125.032" height="8"/>
</g>
<rect x="124.872" y="106.896" style="fill:#E21B1B;" width="78.576" height="78.576"/>
<rect x="124.872" y="106.896" style="fill:#F91E1E;" width="21.44" height="78.576"/>
<g>
	<rect x="225.36" y="234" style="fill:#999999;" width="161.8" height="8"/>
	<rect x="225.36" y="264.16" style="fill:#999999;" width="125.032" height="8"/>
</g>
<rect x="124.872" y="216.72" style="fill:#E21B1B;" width="78.576" height="78.576"/>
<rect x="124.872" y="216.72" style="fill:#F91E1E;" width="21.44" height="78.576"/>
<g>
	<rect x="225.36" y="343.856" style="fill:#999999;" width="161.8" height="8"/>
	<rect x="225.36" y="374.016" style="fill:#999999;" width="125.032" height="8"/>
</g>
<rect x="124.872" y="326.528" style="fill:#E21B1B;" width="78.576" height="78.576"/>
<rect x="124.872" y="326.528" style="fill:#F91E1E;" width="21.44" height="78.576"/>
<rect x="94.104" y="31.936" style="fill:#E21B1B;" width="323.8" height="30.344"/>
<g>
</g>
<g>
</g>
<g>
</g>
<g>
</g>
<g>
</g>
<g>
</g>
<g>
</g>
<g>
</g>
<g>
</g>
<g>
</g>
<g>
</g>
<g>
</g>
<g>
</g>
<g>
</g>
<g>
</g>
</svg>
