<?xml version="1.0" encoding="iso-8859-1"?>
<!-- Generator: Adobe Illustrator 19.0.0, SVG Export Plug-In . SVG Version: 6.00 Build 0)  -->
<svg version="1.1" id="Layer_1" xmlns="http://www.w3.org/2000/svg" xmlns:xlink="http://www.w3.org/1999/xlink" x="0px" y="0px"
	 viewBox="0 0 512 512" style="enable-background:new 0 0 512 512;" xml:space="preserve">
<path style="fill:#F8D5AB;" d="M498.939,139.502H315.486c-8.225,11.725-19.641,21.079-33.195,26.443
	c-1.432,0.565-2.624,1.608-3.375,2.95L256,209.811l-22.915-40.916c-0.752-1.342-1.945-2.384-3.377-2.95
	c-13.553-5.365-24.969-14.718-33.194-26.443H13.061c-2.873,0-5.224,2.351-5.224,5.224v343.271c0,2.873,2.351,5.224,5.224,5.224
	h485.878c2.873,0,5.224-2.351,5.224-5.224V144.727C504.163,141.853,501.812,139.502,498.939,139.502z"/>
<path style="fill:#ABEBFF;" d="M477.395,163.196H288.356c-1.972,1.002-3.989,1.928-6.066,2.749c-1.432,0.565-2.624,1.608-3.375,2.95
	L256,209.811l-22.915-40.916c-0.752-1.342-1.945-2.384-3.377-2.95c-2.075-0.821-4.094-1.747-6.066-2.749H34.605
	c-1.724,0-3.135,1.411-3.135,3.135v300.063c0,1.724,1.411,3.135,3.135,3.135h442.79c1.724,0,3.135-1.411,3.135-3.135V166.331
	C480.53,164.606,479.119,163.196,477.395,163.196z"/>
<path style="opacity:0.1;enable-background:new    ;" d="M59.806,466.393V166.33c0-1.724,1.411-3.135,3.135-3.135H34.605
	c-1.724,0-3.135,1.411-3.135,3.135v300.063c0,1.724,1.411,3.135,3.135,3.135H62.94C61.216,469.528,59.806,468.118,59.806,466.393z"
	/>
<path style="fill:#76D8FF;" d="M288.356,163.196c-1.972,1.002-3.989,1.928-6.066,2.749c-1.432,0.565-2.624,1.608-3.375,2.95
	L256,209.811l-22.915-40.916c-0.752-1.342-1.945-2.384-3.377-2.95c-2.075-0.821-4.094-1.747-6.066-2.749h-41.874v306.333h148.463
	V163.196L288.356,163.196L288.356,163.196z"/>
<g>
	<path style="fill:#35D34F;" d="M144.162,353.451c0,0-13.027,12.065,5.011,28.655c18.036,16.59-4.51,32.676,10.52,54.796
		c15.03,22.12-4.009-6.032,23.547-34.685c27.554-28.655,10.02-35.696-5.511-42.732C162.198,352.445,156.187,339.376,144.162,353.451
		z"/>
	<path style="fill:#35D34F;" d="M120.113,324.794c0,0,2.004-6.535,12.525-1.506c10.521,5.026,12.524-21.617,31.562-28.655
		c19.04-7.038,19.541-15.584,7.516-22.121c-12.024-6.535-8.517-11.561-20.04,4.524c-11.524,16.087-19.255-14.543-1.504-20.108
		c8.018-2.514,10.021-14.076,0-17.596c-10.021-3.518-31.061,1.004-41.583-11.059c-10.52-12.065-27.554-24.131-42.585,1.508
		c-15.03,25.639-6.012,25.135,0,27.649c6.012,2.514,13.026-4.021,20.039,9.049c7.015,13.072-2.003,37.704,7.015,46.753
		c9.017,9.049-0.658,27.259,34.57,31.672c4.006,0.502,8.014,1.51,10.018,3.52c2.003,2.01,9.519-9.553-6.513-13.072
		C115.105,331.832,118.11,327.813,120.113,324.794z"/>
</g>
<g>
	<path style="fill:#009E2F;" d="M176.144,229.122c4.753,3.18,14.028,1.508,9.517,12.065c-4.507,10.558-6.011,27.649,3.007,33.683
		c9.019,6.031,8.018-18.602,24.55-18.602c16.531,0,27.554-58.818-7.515-48.763C170.632,217.559,171.634,226.107,176.144,229.122z"/>
	<path style="fill:#009E2F;" d="M395.665,394.674c-10.877,2.598-7.013,21.159,6.012,19.628c13.025-1.531,21.543-0.525,27.055,11.541
		c5.512,12.065,24.549-14.078,14.527-27.146c-10.02-13.072-8.014-14.076-13.026-22.622
		C425.224,367.526,406.185,392.16,395.665,394.674z"/>
</g>
<path style="fill:#35D34F;" d="M446.767,215.202c5.512-11.059-14.528-8.547-26.051-1.508c-11.524,7.038-25.051,6.032-32.565,1.508
	c-7.516-4.524-4.009,7.038-15.53,8.547c-11.524,1.508-24.551,2.514-22.045-7.038c2.506-9.551-10.521-5.029-10.521-5.029
	c-11.024,3.52-19.038,16.087-16.533,27.146c2.506,11.063-14.528,17.596-30.061,11.063c-15.53-6.537-34.069,1.004-39.58,20.611
	c-5.51,19.604-9.518,23.628-16.531,30.666c-7.014,7.038,9.017,16.087,19.538-0.502c10.522-16.59,17.537-3.518,24.048,3.518
	c2.733,2.953,5.539,14.992,3.38,14.992h-2.473c-3.579-4.01-8.773-6.537-14.562-6.537h-22.044c-10.791,0-19.539,8.779-19.539,19.609
	c0,10.826,8.748,19.606,19.539,19.606h16.426c0.172,0.214,0.349,0.424,0.528,0.632c-0.975,3.272-2.605,11.649,4.385,16.324
	c8.816,5.896-4.898,9.337,3.428,24.08c8.325,14.745,16.653,11.304,21.55,3.441c4.896-7.863,2.937-9.828,9.305-14.742
	c6.367-4.914,7.344-13.269,0.979-20.149c-2.775-3-2.759-6.559-1.855-9.622c1.567-1.972,2.773-4.241,3.517-6.715
	c0.185-0.239,0.296-0.373,0.296-0.373l-0.199,0.032c0.49-1.743,0.76-3.578,0.76-5.477c0-0.551-0.039-1.092-0.083-1.633
	c2.593,2.008,5.363,3.415,8.224,3.734c12.659,1.413,9.085-10.824,17.61-10.753c4.898,2.241,7.639,6.004,9.446,13.77
	c3.506,15.082,5.51,2.514,15.53-7.541c10.021-10.055,13.028-1.659,27.055,11.059c14.027,12.719,8.517-5.027,7.014-14.076
	c-1.504-9.051,18.038-0.102,12.525-20.586c-5.513-20.483,11.023-4.047,14.528-20.135c3.507-16.087-11.522-18.6-7.014-31.169
	c4.51-12.567,17.127-19.782,19.54-2.012c2.646,19.485,21.948,17.008,17.439-2.096c-4.51-19.102-1.243-19.005,6.269-24.033
	C459.957,228.788,441.256,226.263,446.767,215.202z"/>
<circle style="fill:#0079F1;" cx="82.233" cy="419.077" r="14.426"/>
<path style="fill:#FF5E97;" d="M233.085,168.895c-0.752-1.342-1.945-2.384-3.377-2.95c-28.299-11.2-47.313-39.763-47.313-71.075
	c0-41.957,33.019-76.093,73.605-76.093c40.587,0,73.604,34.136,73.604,76.093c0,31.312-19.013,59.875-47.313,71.075
	c-1.432,0.565-2.624,1.608-3.375,2.95L256,209.811L233.085,168.895z M256,61.707c-17.823,0-32.325,14.878-32.325,33.163
	c0,18.288,14.501,33.165,32.325,33.165c17.826,0,32.326-14.877,32.326-33.165C288.326,76.586,273.826,61.707,256,61.707z"/>
<g style="opacity:0.1;">
	<path d="M255.612,162.839c-0.752-1.342-1.945-2.384-3.377-2.95c-28.299-11.2-47.313-39.763-47.313-71.075
		c0-31.108,18.158-57.9,44.085-69.684c-37.317,3.654-66.613,36.222-66.613,75.74c0,31.312,19.014,59.875,47.313,71.075
		c1.433,0.565,2.625,1.608,3.377,2.95L256,209.811l12.959-23.139L255.612,162.839z"/>
</g>
<path d="M410.122,340.394c0,4.329,3.508,7.837,7.837,7.837h1.045c4.329,0,7.837-3.508,7.837-7.837c0-4.329-3.508-7.837-7.837-7.837
	h-1.045C413.63,332.558,410.122,336.065,410.122,340.394z"/>
<path d="M383.269,368.285c-1.463-1.453-3.48-2.288-5.538-2.288s-4.086,0.836-5.538,2.288c-1.463,1.462-2.299,3.479-2.299,5.548
	c0,2.059,0.836,4.086,2.299,5.538c1.452,1.463,3.468,2.299,5.538,2.299c2.058,0,4.086-0.836,5.538-2.299
	c1.463-1.462,2.299-3.478,2.299-5.538C385.567,371.764,384.731,369.747,383.269,368.285z"/>
<path d="M144.196,218.666c2.058,0,4.075-0.836,5.538-2.299c1.463-1.462,2.299-3.478,2.299-5.538c0-2.069-0.836-4.086-2.299-5.547
	c-1.452-1.453-3.48-2.289-5.538-2.289c-2.069,0-4.086,0.836-5.538,2.289c-1.463,1.462-2.299,3.48-2.299,5.547
	c0,2.059,0.836,4.075,2.299,5.538C140.11,217.83,142.137,218.666,144.196,218.666z"/>
<path d="M164.049,206.127c2.069,0,4.086-0.836,5.538-2.299c1.463-1.462,2.299-3.478,2.299-5.538c0-2.069-0.836-4.086-2.299-5.547
	c-1.452-1.453-3.469-2.289-5.538-2.289s-4.086,0.836-5.538,2.289c-1.463,1.462-2.299,3.48-2.299,5.547
	c0,2.059,0.836,4.086,2.299,5.538C159.963,205.291,161.98,206.127,164.049,206.127z"/>
<path d="M307.2,416.392h0.66c4.329,0,7.837-3.508,7.837-7.837s-3.508-7.837-7.837-7.837h-0.66c-4.329,0-7.837,3.508-7.837,7.837
	S302.871,416.392,307.2,416.392z"/>
<path d="M125.388,208.217c2.058,0,4.086-0.836,5.538-2.299c1.463-1.462,2.299-3.478,2.299-5.538c0-2.069-0.836-4.086-2.299-5.547
	c-1.452-1.453-3.48-2.289-5.538-2.289s-4.075,0.836-5.538,2.289c-1.463,1.462-2.299,3.48-2.299,5.547
	c0,2.059,0.836,4.075,2.299,5.538C121.302,207.381,123.329,208.217,125.388,208.217z"/>
<path d="M407.824,369.966c1.463-1.462,2.299-3.478,2.299-5.538c0-2.068-0.836-4.086-2.299-5.548
	c-1.452-1.453-3.479-2.288-5.538-2.288c-2.058,0-4.086,0.836-5.538,2.288c-1.463,1.462-2.299,3.479-2.299,5.548
	c0,2.06,0.836,4.075,2.299,5.538c1.452,1.463,3.479,2.299,5.538,2.299C404.344,372.265,406.371,371.43,407.824,369.966z"/>
<path d="M424.235,328.38c1.142,0,2.302-0.251,3.4-0.781c10.943-5.282,18.014-16.551,18.014-28.71c0-4.329-3.508-7.837-7.837-7.837
	s-7.837,3.508-7.837,7.837c0,6.277-3.507,11.868-9.153,14.593c-3.897,1.882-5.533,6.566-3.652,10.465
	C418.522,326.747,421.321,328.38,424.235,328.38z"/>
<path d="M498.939,131.665H329.093c5.373-11.268,8.348-23.817,8.348-36.795c0-46.279-36.535-83.929-81.44-83.929
	c-44.907,0-81.441,37.651-81.441,83.929c0,12.977,2.976,25.527,8.349,36.795H13.061C5.859,131.666,0,137.524,0,144.727v343.271
	c0,7.202,5.859,13.061,13.061,13.061h70.531c4.328,0,7.837-3.508,7.837-7.837s-3.509-7.837-7.837-7.837H15.673V147.339h176.895
	c2.195,2.825,4.575,5.5,7.108,8.021H34.605c-6.05,0-10.971,4.921-10.971,10.971v300.063c0,6.05,4.921,10.971,10.971,10.971h442.79
	c6.05,0,10.971-4.921,10.971-10.971V166.331c0-6.05-4.921-10.971-10.971-10.971H411.69c-4.329,0-7.837,3.508-7.837,7.837
	c0,4.329,3.508,7.837,7.837,7.837h61.003v290.659H338.068V357.834c1.31,0.857,2.897,1.389,4.843,1.389
	c5.359,0,8.159-4.093,11.122-8.425c1.726-2.524,3.876-5.668,6.602-8.403c1.097-1.1,1.834-1.666,2.264-1.948
	c1.387,0.902,3.984,3.522,6.123,5.68c2.227,2.244,4.749,4.789,7.851,7.601c5.002,4.536,8.729,6.47,12.461,6.47
	c2.913,0,5.629-1.277,7.45-3.502c3.954-4.833,2.529-11.893,0.878-20.067c-0.051-0.253-0.102-0.503-0.153-0.751
	c5.177-1.542,16.729-6.095,11.734-24.653c-0.228-0.847-0.395-1.559-0.517-2.154c4.607-0.616,12.605-2.66,15.135-14.275
	c2.497-11.454-2.126-18.508-5.187-23.177c-2.681-4.092-2.897-4.813-2.109-7.015c1.115-3.11,2.666-5.193,3.845-6.366
	c0.194,0.675,0.392,1.578,0.553,2.761c1.9,13.992,10.583,20.255,18.346,20.256c0,0,0.001,0,0.002,0c4.45,0,8.629-2.054,11.465-5.636
	c3.794-4.794,4.867-11.744,3.02-19.572c-2.188-9.267-1.932-11.854-1.747-12.508c0.402-0.406,1.712-1.243,2.681-1.865
	c0.65-0.416,1.34-0.859,2.065-1.344c4.114-2.751,5.138-6.075,5.273-8.381c0.305-5.222-3.431-8.409-5.904-10.518
	c-0.794-0.676-2.063-1.76-2.527-2.413c0.031-0.083,0.077-0.189,0.143-0.319c3.115-6.251,1.393-10.718,0.09-12.823
	c-1.709-2.763-5.4-6.055-13.27-6.055c-7.3,0-16.933,2.888-23.969,7.187c-5.336,3.259-10.6,3.942-14.079,3.942
	c-3.985,0.001-7.763-0.895-10.36-2.461c-2.421-1.458-4.691-2.166-6.937-2.166c-5.989,0-8.733,4.592-10.053,6.8
	c-1.25,2.092-1.546,2.589-3.6,2.857c-3.411,0.446-7.337,0.903-10.606,0.903c-1.019,0-1.819-0.045-2.442-0.109
	c0.681-4.524-0.743-7.591-2.165-9.434c-1.606-2.081-4.71-4.564-10.377-4.564c-3.348,0-6.564,0.879-7.945,1.312v-33.054h41.229
	c4.329,0,7.837-3.508,7.837-7.837c0-4.329-3.508-7.837-7.837-7.837h-66.975c2.534-2.52,4.913-5.195,7.108-8.021h176.895v222.556
	c0,4.329,3.508,7.837,7.837,7.837s7.837-3.508,7.837-7.837V144.727C512,137.524,506.141,131.665,498.939,131.665z M193.576,231.173
	c-1.994-4.301-5.758-6.066-8.843-7.115c3.377-2.096,10.074-5.278,23.129-9.02c1.975-0.566,3.753-0.853,5.287-0.853
	c2.053,0,6.325,0,7.57,8.568c1.701,11.705-4.53,24.629-7.611,25.677c-13.221,0.059-19.131,10.566-22.338,16.525
	c-1.646-4.926-0.958-13.536,2.097-20.692C193.672,242.385,196.118,236.656,193.576,231.173z M173.932,461.691H39.307V171.032
	h134.625v41.451c-4.595,3.396-7.1,7.029-7.728,11.04c-0.743,4.749,1.344,9.277,5.582,12.111c0.706,0.472,1.428,0.864,2.145,1.205
	v27.907c-1.573-0.953-2.785-1.848-3.882-2.659c-2.303-1.704-4.914-3.635-8.609-3.635c-0.1,0-0.199,0.001-0.297,0.003
	c2.254-2.881,3.583-6.454,3.648-10.27c0.125-7.373-4.482-13.599-12.023-16.248c-4.399-1.545-9.612-1.856-15.132-2.186
	c-9.002-0.537-18.311-1.093-23.14-6.63c-9.452-10.841-19.032-16.337-28.471-16.337c-10.366,0-19.377,6.403-26.781,19.032
	c-8.389,14.312-10.83,22.813-8.423,29.341c2.22,6.024,7.702,7.925,10.645,8.947c0.513,0.179,1.027,0.351,1.514,0.554
	c2.699,1.128,5.21,1.259,6.864,1.259c0.827,0,1.663-0.04,2.51-0.085c0.588-0.03,1.185-0.066,1.787-0.066c1.41,0,2.627,0,4.997,4.417
	c2.319,4.321,2.092,12,1.872,19.427c-0.32,10.807-0.65,21.982,6.497,29.152c1.238,1.242,1.883,3.369,2.834,6.732
	c2.638,9.343,6.627,23.465,36.313,27.183c3.901,0.489,5.307,1.239,5.554,1.388c0.464,0.449,0.974,0.834,1.513,1.162
	c-1.107,2.553-1.952,5.686-1.946,9.345c0.015,8.095,4.082,15.934,12.091,23.299c5.87,5.399,5.422,9.706,3.849,18.934
	c-1.604,9.408-3.599,21.116,5.494,34.499c5.779,8.507,7.726,11.371,12.632,11.375c0.002,0,0.004,0,0.006,0
	c3.281,0,6.925-2.044,8.081-6.578v15.591H173.932z M111.141,331.667c-3.55-2.765-4.546-6.293-5.715-10.43
	c-1.237-4.38-2.639-9.346-6.815-13.536c-2.382-2.391-2.134-10.838-1.932-17.625c0.28-9.485,0.569-19.292-3.729-27.301
	c-4.641-8.65-10.617-12.679-18.807-12.679c-0.879,0-1.748,0.042-2.609,0.087c-0.569,0.03-1.133,0.064-1.689,0.064
	c-0.636,0-0.829-0.054-0.817-0.045c-0.858-0.359-1.69-0.648-2.423-0.902c-0.262-0.092-0.58-0.201-0.885-0.312
	c0.343-1.82,1.72-6.159,7.045-15.242c4.39-7.488,8.851-11.285,13.259-11.285c4.577,0,10.493,3.894,16.659,10.964
	c9.149,10.49,23.524,11.348,34.019,11.975c4.394,0.262,8.544,0.51,10.872,1.327c0.468,0.164,1.556,0.61,1.545,1.194
	c-0.007,0.456-0.358,1.238-1.293,1.531c-12.371,3.879-17.263,16.222-15.701,26.412c1.25,8.155,6.532,13.634,13.147,13.633
	c0.001,0,0.003,0,0.004,0c3.246-0.001,8.096-1.372,12.769-7.896c1.486-2.073,3-4.188,4.212-5.792
	c1.466,1.048,3.315,2.286,5.715,3.589c1.871,1.018,2.98,1.901,3.57,2.487c-0.982,0.991-3.594,3.007-10.062,5.399
	c-12.285,4.542-18.606,14.964-23.222,22.574c-1.153,1.899-2.63,4.335-3.709,5.698c-3.176-1.348-6.084-2.006-8.85-2.006
	c-6.407,0-10.749,3.618-12.56,7.58C111.833,323.145,109.658,327.003,111.141,331.667z M150.538,265.367
	c-0.735,0.93-1.509,1.961-2.342,3.098C148.723,267.13,149.498,266.104,150.538,265.367z M162.138,421.647
	c-0.37-3.997,0.304-7.947,1.029-12.208c1.648-9.671,3.699-21.706-8.689-33.102c-4.512-4.149-6.941-8.165-7.026-11.614
	c-0.075-3.07,1.738-5.188,2.094-5.575c0.266-0.23,0.32-0.31,0.574-0.608c2.37-2.773,3.84-3.514,4.335-3.514
	c1.387,0,4.765,2.313,7.479,4.171c3.334,2.283,7.486,5.124,12.56,7.423l0.988,0.448c6.065,2.74,13.612,6.15,14.312,9.784
	c0.273,1.415,0.197,7.034-12.203,19.929C169.248,405.46,164.679,414.124,162.138,421.647z M327.877,251.443
	c3.284-4.111,4.45-9.206,3.286-14.345c-1.556-6.874,3.914-15.591,11.26-17.946c0.05,3.406,1.316,5.884,2.57,7.511
	c4.074,5.281,11.084,5.892,16.004,5.892c4.168,0,8.728-0.523,12.641-1.035c7.458-0.977,11.337-4.919,13.522-8.013
	c4.508,2.024,9.852,3.117,15.393,3.116c7.869,0,15.563-2.158,22.248-6.241c3.826-2.337,9.221-4.193,13.484-4.73
	c-1.652,6.808,1.769,11.876,4.831,15.05c-7.641,6.02-8.419,12.659-4.574,28.946c0.636,2.695,0.508,4.449,0.279,5.403
	c-0.754-0.831-1.852-2.677-2.326-6.162c-0.554-4.082-3.277-17.407-15.021-17.407c-9.162,0-16.476,8.954-19.66,17.829
	c-3.517,9.807,0.857,16.482,3.753,20.9c2.542,3.879,4.076,6.22,2.981,11.247c-0.251,1.153-0.527,1.668-0.635,1.839
	c-0.442,0.16-1.557,0.28-2.314,0.359c-2.861,0.305-7.652,0.815-10.717,5.287c-3.274,4.775-2.227,10.948-0.771,16.355
	c0.791,2.941,0.75,4.406,0.677,4.961c-0.58,0.272-1.714,0.59-2.506,0.814c-8.364,2.354-12.018,7.083-10.861,14.057
	c0.082,0.491,0.171,0.992,0.268,1.505c-0.53-0.53-1.041-1.046-1.537-1.545c-5.825-5.875-10.428-10.517-17.255-10.517
	c-5.943,0-10.473,3.857-13.364,6.758c-1.624,1.629-3.052,3.296-4.311,4.9c-1.999-4.921-5.404-9.772-11.854-12.723
	c-1.003-0.46-2.092-0.701-3.195-0.711c-0.022,0-0.117,0-0.14,0c-8.213,0-11.689,5.928-13.359,8.776
	c-0.415,0.709-1.044,1.782-1.286,1.984c-0.002,0.001-0.255,0.106-0.957,0.106c-0.318,0-0.675-0.022-1.06-0.064
	c-0.817-0.092-2.226-0.538-4.298-2.143c-2.456-1.902-5.801-2.172-8.532-0.695c-2.729,1.479-4.33,4.429-4.078,7.524
	c0.026,0.331,0.057,0.662,0.057,0.999c0,1.125-0.157,2.255-0.467,3.357c-0.014,0.049-0.026,0.098-0.04,0.148
	c-0.005,0.018-0.011,0.038-0.018,0.056c-0.447,1.488-1.169,2.865-2.147,4.095c-0.628,0.789-1.097,1.693-1.382,2.66
	c-1.909,6.478-0.625,12.573,3.621,17.161c1.557,1.682,2.344,3.463,2.214,5.013c-0.14,1.67-1.289,2.884-2.229,3.609
	c-5.196,4.01-6.722,7.107-8.309,11.045c-0.655,1.626-1.333,3.307-2.86,5.758c-1.355,2.177-2.508,2.919-2.85,3.052
	c-0.608-0.187-2.633-1.612-5.224-6.204c-2.596-4.595-1.923-6.369-0.807-9.306c1.161-3.06,4.249-11.189-5.088-17.434
	c-2.531-1.692-1.858-5.471-1.233-7.573c0.762-2.552,0.172-5.316-1.561-7.338c-0.125-0.146-0.25-0.294-0.371-0.445
	c-1.488-1.848-3.732-2.923-6.105-2.923h-16.426c-6.452,0-11.702-5.28-11.702-11.77c0-6.491,5.25-11.772,11.702-11.772h22.044
	c3.317,0,6.492,1.427,8.714,3.917c1.487,1.667,3.613,2.62,5.847,2.62h2.473c3.385,0,6.349-1.971,7.735-5.142
	c2.585-5.916-1.518-18.854-5.365-23.01c-0.766-0.829-1.598-1.822-2.477-2.876c-4.175-4.993-9.372-11.209-17.287-11.209
	c-4.911,0-8.788,2.486-11.618,5.25c2.032-4.334,3.993-9.834,6.12-17.405c3.564-12.679,13.051-17.196,20.741-17.196
	c2.815,0,5.593,0.568,8.256,1.689c5.003,2.104,10.445,3.216,15.74,3.216C315.315,260.331,323.431,257.008,327.877,251.443z
	 M263.543,304.802c1.702-2.672,2.888-3.767,3.449-4.184c1.159,0.73,3.033,2.861,4.419,4.499c-1.358-0.208-2.739-0.316-4.129-0.316
	H263.543z M322.395,171.033v43.897c-5.773,7.253-8.525,16.759-6.517,25.63c0.112,0.496,0.065,0.713-0.247,1.101
	c-1.152,1.443-4.607,2.997-9.47,2.997c-3.226,0-6.566-0.688-9.66-1.989c-4.596-1.935-9.42-2.915-14.335-2.915
	c-16.876,0-30.94,11.237-35.83,28.628c-4.959,17.643-7.961,20.654-14.539,27.254c-3.825,3.839-5.011,9.091-3.095,13.707
	c0.11,0.264,0.228,0.523,0.355,0.777c-6.786,5-11.197,13.056-11.197,22.127c0,15.131,12.281,27.443,27.375,27.443h8.235
	c0.334,6.078,2.993,11.317,7.731,14.912c-1.56,4.14-4.018,11.527,1.977,22.141c5.313,9.41,11.666,14.182,18.884,14.182
	c6.211,0,11.944-3.713,16.142-10.452c2.249-3.611,3.314-6.254,4.093-8.184c0.949-2.354,1.12-2.778,3.349-4.499
	c4.855-3.746,7.791-8.97,8.27-14.71c0.502-5.987-1.747-12.012-6.329-16.964c-0.155-0.168-0.351-0.379-0.311-0.993
	c1.312-1.905,2.374-3.953,3.174-6.117c0.392,0.068,0.784,0.124,1.177,0.168c0.962,0.108,1.904,0.161,2.8,0.161
	c3.261,0,5.861-0.716,7.965-1.777v114.133H189.605v-54.807c12.42-13.117,17.387-23.622,15.582-32.995
	c-1.647-8.548-8.399-13.651-15.582-17.438v-22.085c0-4.329-3.509-7.837-7.837-7.837c-4.328,0-7.837,3.508-7.837,7.837v14.004
	c-1.067-0.699-2.116-1.404-3.142-2.108c-5.192-3.554-10.096-6.911-16.333-6.911c-1.999,0-3.944,0.364-5.849,1.08
	c-0.88-3.651-3.322-7.274-7.992-9.889c4.818-2.288,7.972-7.489,11.048-12.561c3.797-6.26,8.101-13.356,15.257-16.001
	c1.573-0.582,4.175-1.546,7.013-2.973v2.965c0,4.329,3.509,7.837,7.837,7.837c4.328,0,7.837-3.508,7.837-7.837v-18.449
	c0.561,0.086,1.124,0.133,1.689,0.133c0.002,0,0.003,0,0.004,0c7.217,0,10.609-6.314,13.085-10.923
	c3.421-6.369,5.27-8.63,8.834-8.63c7.119,0,13.517-4.937,18.014-13.9c3.454-6.884,5.436-15.426,5.436-23.436
	c0-7.359-1.694-13.792-4.898-18.604c-4.146-6.226-10.758-9.653-18.618-9.653c-2.996,0-6.228,0.491-9.607,1.459
	c-5.23,1.499-9.864,3.011-13.938,4.554v-33.494h32.218c1.517,0.725,3.054,1.417,4.625,2.049l22.715,40.559
	c1.386,2.474,4.001,4.007,6.838,4.007c2.837,0,5.451-1.533,6.838-4.007l22.715-40.56c1.57-0.631,3.108-1.323,4.624-2.048h32.216
	V171.033z M279.412,158.656c-3.099,1.224-5.703,3.499-7.335,6.409L256,193.773l-16.078-28.709c-0.001-0.001-0.002-0.002-0.002-0.004
	c-1.631-2.908-4.236-5.183-7.328-6.403c-25.338-10.028-42.36-35.662-42.36-63.788c0-37.637,29.504-68.256,65.768-68.256
	s65.767,30.62,65.767,68.256C321.767,122.996,304.743,148.63,279.412,158.656z"/>
<path d="M504.163,391.313c-4.329,0-7.837,3.508-7.837,7.837v86.235H114.939c-4.328,0-7.837,3.508-7.837,7.837
	s3.509,7.837,7.837,7.837h384c7.202,0,13.061-5.859,13.061-13.061V399.15C512,394.821,508.492,391.313,504.163,391.313z"/>
<path d="M400.177,422.229c0.794,0,1.606-0.048,2.415-0.143c2.889-0.34,5.129-0.498,7.051-0.498c6.537,0,9.332,1.755,11.96,7.511
	c2.197,4.81,6.369,7.681,11.157,7.682c0.001,0,0.001,0,0.001,0c7.763,0,14.162-7.365,17.563-14.258
	c5.168-10.475,4.853-21.165-0.845-28.595c-5.859-7.645-7.083-10.499-8.502-13.804c-0.914-2.134-1.952-4.551-3.981-8.013
	c-2.112-3.602-5.684-5.669-9.801-5.669c-6.642,0-13.199,5.428-20.79,11.714c-3.984,3.299-10.005,8.284-12.558,8.894
	c-8.232,1.966-13.256,9.497-12.218,18.314C382.613,413.745,389.303,422.229,400.177,422.229z M397.242,402.379
	c0.001-0.001,0.068-0.041,0.245-0.083c6.1-1.459,12.324-6.611,18.913-12.066c2.495-2.066,6.206-5.139,8.851-6.879
	c0.504,1.044,0.907,1.983,1.323,2.952c1.679,3.914,3.415,7.961,10.468,17.161c1.812,2.363,1.26,6.004,0.769,7.964
	c-0.792,3.165-2.345,5.898-3.742,7.687c-5.252-8.986-13.103-13.202-24.424-13.202c-2.547,0-5.37,0.192-8.88,0.605
	c-0.204,0.023-0.401,0.036-0.586,0.036c-0.461,0-1.686,0-2.516-1.541C396.999,403.781,397.146,402.565,397.242,402.379z"/>
<path d="M110.759,411.238h-7.714c-2.258-5.974-7.002-10.717-12.974-12.976v-7.714c0-4.329-3.509-7.837-7.837-7.837
	s-7.837,3.508-7.837,7.837v7.714c-5.973,2.258-10.716,7.002-12.974,12.976h-7.714c-4.328,0-7.837,3.508-7.837,7.837
	s3.509,7.837,7.837,7.837h7.714c2.257,5.973,7.002,10.716,12.974,12.973v7.714c0,4.329,3.509,7.837,7.837,7.837
	s7.837-3.508,7.837-7.837v-7.714c5.973-2.257,10.716-7.001,12.973-12.973h7.716c4.328,0,7.837-3.508,7.837-7.837
	C118.596,414.747,115.087,411.238,110.759,411.238z M82.233,425.663c-3.633,0-6.589-2.955-6.589-6.588
	c0-3.634,2.956-6.59,6.589-6.59c3.633,0,6.589,2.956,6.589,6.59C88.823,422.708,85.867,425.663,82.233,425.663z"/>
<path d="M285.461,79.121c-4.203,1.039-6.767,5.286-5.728,9.488c0.503,2.032,0.758,4.14,0.758,6.262
	c0,13.966-10.986,25.328-24.489,25.328c-13.502,0-24.488-11.362-24.488-25.328c0-13.965,10.985-25.326,24.488-25.326
	c3.267,0,6.436,0.655,9.418,1.948c3.969,1.721,8.585-0.103,10.307-4.072c1.721-3.972-0.101-8.586-4.073-10.307
	c-4.961-2.151-10.227-3.242-15.652-3.242c-22.145,0-40.162,18.393-40.162,41c0,22.608,18.016,41.002,40.162,41.002
	s40.163-18.393,40.163-41.002c0-3.388-0.409-6.76-1.214-10.022C293.911,80.647,289.657,78.083,285.461,79.121z"/>
<g>
</g>
<g>
</g>
<g>
</g>
<g>
</g>
<g>
</g>
<g>
</g>
<g>
</g>
<g>
</g>
<g>
</g>
<g>
</g>
<g>
</g>
<g>
</g>
<g>
</g>
<g>
</g>
<g>
</g>
</svg>
