<?xml version="1.0" encoding="iso-8859-1"?>
<!-- Generator: Adobe Illustrator 19.0.0, SVG Export Plug-In . SVG Version: 6.00 Build 0)  -->
<svg version="1.1" id="Layer_1" xmlns="http://www.w3.org/2000/svg" xmlns:xlink="http://www.w3.org/1999/xlink" x="0px" y="0px"
	 viewBox="0 0 512 512" style="enable-background:new 0 0 512 512;" xml:space="preserve">
<rect x="76.366" y="75.478" style="fill:#F7B239;" width="281.261" height="360.842"/>
<g>
	<rect x="28.808" y="171.308" style="fill:#999999;" width="47.559" height="46.921"/>
	<rect x="28.808" y="124.388" style="fill:#999999;" width="47.559" height="46.921"/>
</g>
<g>
	<path style="fill:#B3B3B3;" d="M63.535,9.395h35.85c-12.696,0-23.016,9.019-23.016,20.127V75.48v48.91H28.81V44.12
		C28.81,24.944,44.359,9.395,63.535,9.395z"/>
	<path style="fill:#B3B3B3;" d="M99.385,502.618h156.748v0.013H99.385h-35.85c-19.176,0-34.725-15.548-34.725-34.737V218.23h47.559
		v218.091v46.17C76.369,493.6,86.689,502.618,99.385,502.618z"/>
</g>
<g>
	<path style="fill:#CCCCCC;" d="M357.63,436.322v46.17c0,11.108-10.307,20.127-23.004,20.127h-78.493H99.385
		c-12.696,0-23.016-9.019-23.016-20.127v-46.17H357.63z"/>
	<path style="fill:#CCCCCC;" d="M357.63,29.522V75.48H76.369V29.522c0-11.108,10.32-20.127,23.016-20.127h156.748h78.493
		C347.323,9.395,357.63,18.414,357.63,29.522z"/>
</g>
<rect x="141.425" y="109.002" style="fill:#2BA5F7;" width="281.261" height="360.842"/>
<g>
	<rect x="201.93" y="141.775" style="fill:#F2F2F2;" width="281.261" height="360.842"/>
	<path style="fill:#F2F2F2;" d="M300.56,221.124c11.358,0,20.565,9.206,20.565,20.564c0,11.258-9.044,20.389-20.252,20.552
		c-0.113,0-0.213,0-0.325,0c-0.1,0-0.213,0-0.313,0c-11.208-0.163-20.239-9.307-20.239-20.552
		C279.995,230.33,289.202,221.124,300.56,221.124z"/>
</g>
<path style="fill:#F7B239;" d="M357.775,243.402c0,14.435-5.354,27.619-14.185,37.689c-10.62-11.521-25.818-18.763-42.718-18.851
	c11.208-0.163,20.252-9.294,20.252-20.552c0-11.358-9.207-20.565-20.565-20.565c-11.358,0-20.565,9.206-20.565,20.565
	c0,11.245,9.031,20.389,20.239,20.552c-16.899,0.088-32.11,7.33-42.73,18.851c-8.831-10.07-14.185-23.254-14.185-37.689
	c0-31.61,25.618-57.228,57.228-57.228S357.775,211.792,357.775,243.402z"/>
<path style="fill:#F95428;" d="M343.59,281.091c-10.482,11.971-25.881,19.526-43.043,19.526s-32.56-7.555-43.043-19.526
	c10.62-11.521,25.831-18.763,42.73-18.851c0.113,0.013,0.213,0.013,0.325,0.013c0.1,0,0.213,0,0.313-0.013
	C317.772,262.328,332.97,269.57,343.59,281.091z"/>
<g>
	<path style="fill:#333333;" d="M300.547,310.005c36.727,0,66.607-29.88,66.607-66.607s-29.88-66.607-66.607-66.607
		s-66.607,29.88-66.607,66.607S263.82,310.005,300.547,310.005z M271.325,281.241c8.361-6.166,18.526-9.588,29.098-9.614
		c0.044,0,0.088,0.004,0.133,0.004c0.041,0,0.083-0.003,0.124-0.003c10.569,0.028,20.73,3.45,29.089,9.614
		c-8.089,6.261-18.224,10-29.222,10C289.551,291.242,279.415,287.503,271.325,281.241z M289.374,241.684
		c0-6.166,5.016-11.182,11.182-11.182s11.182,5.016,11.182,11.182c0,6.138-4.971,11.133-11.099,11.178
		c-0.031,0-0.061-0.002-0.091-0.002c-0.028,0-0.054,0.002-0.081,0.002C294.343,252.813,289.374,247.82,289.374,241.684z
		 M300.547,195.554c26.381,0,47.844,21.463,47.844,47.844c0,8.604-2.294,16.677-6.286,23.66c-4.992-3.856-10.47-6.995-16.288-9.324
		c2.961-4.643,4.685-10.148,4.685-16.051c0-16.512-13.433-29.945-29.945-29.945c-16.512,0-29.945,13.433-29.945,29.945
		c0,5.9,1.722,11.403,4.681,16.045c-5.823,2.329-11.305,5.471-16.301,9.329c-3.992-6.984-6.287-15.057-6.287-23.66
		C252.703,217.018,274.166,195.554,300.547,195.554z"/>
	<path style="fill:#333333;" d="M171.715,493.237H99.389v-0.013c-7.39,0-13.635-4.921-13.635-10.745v-36.776h24.667
		c5.181,0,9.382-4.2,9.382-9.382s-4.2-9.382-9.382-9.382H85.754V84.852h271.882c3.153,0,6.096-1.586,7.832-4.219
		c1.041-1.579,1.564-3.41,1.549-5.246V29.51c0-16.271-14.534-29.508-32.398-29.508L63.542,0c-24.322,0-44.11,19.786-44.11,44.109
		V467.89c0,24.322,19.786,44.109,44.109,44.109h108.174c5.181,0,9.382-4.2,9.382-9.382S176.896,493.237,171.715,493.237z
		 M66.991,161.918H38.196v-28.16h28.795V161.918z M66.991,180.681v28.16H38.196v-28.16H66.991z M348.252,29.51v36.58H85.754V29.51
		c0-5.824,6.244-10.745,13.635-10.745h235.228C342.008,18.763,348.252,23.685,348.252,29.51z M63.542,18.763h5.683
		c-1.436,3.332-2.234,6.955-2.234,10.746v85.485H38.196V44.109C38.196,30.134,49.566,18.763,63.542,18.763z M38.196,467.89V227.606
		h28.795v254.872c0,3.795,0.799,7.422,2.239,10.758h-5.688C49.566,493.237,38.196,481.866,38.196,467.89z"/>
	<path style="fill:#333333;" d="M190.571,53.13h52.871c5.181,0,9.382-4.2,9.382-9.382s-4.2-9.382-9.382-9.382h-52.871
		c-5.181,0-9.382,4.2-9.382,9.382S185.39,53.13,190.571,53.13z"/>
	<path style="fill:#333333;" d="M171.715,460.476H150.8V118.385H422.68c5.181,0,9.382-4.2,9.382-9.382
		c0-5.181-4.2-9.382-9.382-9.382H141.419c-5.181,0-9.382,4.2-9.382,9.382v360.855c0,5.181,4.2,9.382,9.382,9.382h30.296
		c5.181,0,9.382-4.2,9.382-9.382S176.896,460.476,171.715,460.476z"/>
	<path style="fill:#333333;" d="M483.185,132.39H201.926c-5.181,0-9.382,4.2-9.382,9.382v360.847c0,5.181,4.2,9.382,9.382,9.382
		h281.26c5.181,0,9.382-4.2,9.382-9.382V141.771C492.566,136.59,488.366,132.39,483.185,132.39z M473.803,493.237H211.308V151.153
		h262.496v342.084H473.803z"/>
	<path style="fill:#333333;" d="M389.368,224.097h57.541c5.181,0,9.382-4.2,9.382-9.382s-4.2-9.382-9.382-9.382h-57.541
		c-5.181,0-9.382,4.2-9.382,9.382S384.187,224.097,389.368,224.097z"/>
	<path style="fill:#333333;" d="M389.368,265.376h57.541c5.181,0,9.382-4.2,9.382-9.382s-4.2-9.382-9.382-9.382h-57.541
		c-5.181,0-9.382,4.2-9.382,9.382S384.187,265.376,389.368,265.376z"/>
	<path style="fill:#333333;" d="M243.322,349.185h203.587c5.181,0,9.382-4.2,9.382-9.382s-4.2-9.382-9.382-9.382H243.322
		c-5.181,0-9.382,4.2-9.382,9.382S238.141,349.185,243.322,349.185z"/>
	<path style="fill:#333333;" d="M243.322,392.966h169.814c5.181,0,9.382-4.2,9.382-9.382s-4.2-9.382-9.382-9.382H243.322
		c-5.181,0-9.382,4.2-9.382,9.382S238.141,392.966,243.322,392.966z"/>
	<path style="fill:#333333;" d="M274.856,430.466c-3.664-3.664-9.604-3.664-13.267,0l-1.769,1.769l-1.769-1.769
		c-3.664-3.664-9.604-3.664-13.267,0c-3.664,3.664-3.664,9.604,0,13.267l1.769,1.769l-1.769,1.769
		c-3.664,3.664-3.664,9.604,0,13.267c1.831,1.831,4.233,2.748,6.633,2.748c2.4,0,4.802-0.916,6.633-2.748l1.769-1.769l1.769,1.769
		c1.831,1.831,4.233,2.748,6.633,2.748c2.4,0,4.802-0.916,6.633-2.748c3.664-3.664,3.664-9.604,0-13.267l-1.769-1.769l1.769-1.769
		C278.52,440.071,278.52,434.13,274.856,430.466z"/>
	<path style="fill:#333333;" d="M440.327,430.466c-3.664-3.664-9.604-3.664-13.267,0l-1.769,1.769l-1.769-1.769
		c-3.664-3.664-9.604-3.664-13.267,0c-3.664,3.664-3.664,9.604,0,13.267l1.769,1.769l-1.769,1.769
		c-3.664,3.664-3.664,9.604,0,13.267c1.831,1.831,4.233,2.748,6.633,2.748s4.802-0.916,6.633-2.748l1.769-1.769l1.769,1.769
		c1.831,1.831,4.233,2.748,6.633,2.748s4.802-0.916,6.633-2.748c3.664-3.664,3.664-9.604,0-13.267l-1.769-1.769l1.769-1.769
		C443.991,440.071,443.991,434.13,440.327,430.466z"/>
	<path style="fill:#333333;" d="M357.591,430.466c-3.664-3.664-9.604-3.664-13.267,0l-1.769,1.769l-1.769-1.769
		c-3.664-3.664-9.604-3.664-13.267,0c-3.664,3.664-3.664,9.604,0,13.267l1.769,1.769l-1.769,1.769
		c-3.664,3.664-3.664,9.604,0,13.267c1.831,1.831,4.233,2.748,6.633,2.748s4.802-0.916,6.633-2.748l1.769-1.769l1.769,1.769
		c1.831,1.831,4.233,2.748,6.633,2.748s4.802-0.916,6.633-2.748c3.664-3.664,3.664-9.604,0-13.267l-1.769-1.769l1.769-1.769
		C361.256,440.071,361.256,434.13,357.591,430.466z"/>
</g>
<g>
</g>
<g>
</g>
<g>
</g>
<g>
</g>
<g>
</g>
<g>
</g>
<g>
</g>
<g>
</g>
<g>
</g>
<g>
</g>
<g>
</g>
<g>
</g>
<g>
</g>
<g>
</g>
<g>
</g>
</svg>
